<svg xmlns="http://www.w3.org/2000/svg" width="376" height="208" fill="none"><g fill="#cad5e2"><path d="M98.946 44.094a10.957 10.957 0 0 0-.718-2.745 1.24 1.24 0 0 0-.632-.778 1.31 1.31 0 0 0-.628-.007l-3.222.492a1.23 1.23 0 0 0-.735.285c-.42.441-.006 1.151-.019 1.759-.014.684-.623 1.239-1.283 1.422a4.86 4.86 0 0 1-2.038-.025l-4.506-.699a7.43 7.43 0 0 0 3.409-2.272c.593-.702.908-2.011.051-2.343a2.11 2.11 0 0 0-.783-.063c-2.041.016-3.648-1.686-5.559-2.403a6.154 6.154 0 0 0-3.793-.091 6.15 6.15 0 0 0-3.124 2.151l2.4.116c.226-.012.45.047.639.17.526.432-.128 1.261-.054 1.937.096.878 1.264 1.066 2.144 1.154s1.996.803 1.573 1.579c-4.423 1.521-8.925-2.974-13.57-2.421-1.176.14-2.286.601-3.434.891-7.012 1.772-14.262-2.956-21.425-1.954a27.24 27.24 0 0 0-4.677 1.232c-.975.32-1.992.665-2.7 1.407s-.978 2.009-.307 2.785a15.71 15.71 0 0 1-5.5-.522 3.08 3.08 0 0 1 1.164 1.139 3.07 3.07 0 0 1 .42 1.573 32.68 32.68 0 0 0-8.359 2.545 14.053 14.053 0 0 0 1.73 2.302l-3.656 2.346c1.235.311 1.874 1.993 1.156 3.043 1.281-.569 2.075-2.041 3.444-2.34.897-.196 1.81.171 2.662.515s1.787.678 2.668.42 1.531-1.399.971-2.126a45.65 45.65 0 0 1 11.581-1.807c.303-.038.609.02.877.166.511.354.376 1.118.349 1.738s.456 1.435 1.011 1.155c-.653.565-.095 1.63.532 2.224s1.381 1.415.998 2.188c-.1.202-.27.363-.366.567-.284.601.167 1.302.699 1.701s1.184.678 1.554 1.231.202 1.52-.459 1.597l-1.879-2.383a4.88 4.88 0 0 0-1.269 2.402c1.993 1.627 2.292 4.938.624 6.895-.852 1-2.065 1.608-3.123 2.388s-2.037 1.891-2.035 3.205c.005 2.269-.181 4.377.67 6.481a99.72 99.72 0 0 0 5.428 11.308c.537.959 1.231 2.01 2.319 2.175a133.49 133.49 0 0 1-3.712-10.182c.717.003 1.545.06 1.965.639.348.48.273 1.133.381 1.716a5.31 5.31 0 0 0 .679 1.593l6.565 11.677c.544.969 1.168 2.008 2.209 2.4.665.25 1.434.203 2.046.564.48.283.803.785 1.292 1.051 1.383.754 3.306-.691 4.598.208.37.257.605.666.945.961 1.194 1.032 3.152.341 4.529 1.111.888.496 1.348 1.489 1.822 2.388 1.186 2.253 3.106 4.461 5.649 4.64.799.056 1.615-.095 2.395.082s1.549.858 1.424 1.648c-.215 1.354.455 2.836.275 4.195-.328 2.476-3.844 3.564-4.146 6.042-.066.543.037 1.103-.092 1.634-.159.652-.648 1.182-.822 1.829-.33 1.226.55 2.447 1.517 3.272s2.12 1.536 2.648 2.691c.559 1.221.284 2.644.466 3.974.397 2.903 2.908 5.056 5.492 6.443.787.423 1.633.832 2.142 1.566.665.957.599 2.219.821 3.363.544 2.802 2.905 5.11 2.973 7.963.048 2.028-1.081 3.867-1.755 5.78a13.47 13.47 0 0 0 1.102 11.181c.504.85 1.108 1.652 1.464 2.574.637 1.645.43 3.516 1.017 5.179.776 2.2 2.909 4.017 2.705 6.34.968 2.008 3.106 2.994 5.256 3.592l3.853 1.071c.738.205 1.509.412 2.26.263s1.469-.771 1.449-1.536c-1.889-.425-3.84-.878-5.397-2.028s-2.625-3.197-2.034-5.039c.274-.854.857-1.841.303-2.546-.317-.405-.898-.51-1.256-.879-.558-.575-.366-1.541.035-2.235s.982-1.313 1.144-2.097a2.19 2.19 0 0 0-.157-1.299 2.18 2.18 0 0 0-.871-.978 5.46 5.46 0 0 0 1.908-1.222c.501-.572.733-1.454.338-2.104 1.172.148 2.555.221 3.324-.674.614-.715.572-1.784.329-2.694s-.652-1.794-.665-2.735c2.703.128 5.411.036 8.099-.275a5.25 5.25 0 0 0-2.462-3.079c1.217-.206 2.326-1.661 2.71-2.833s.287-2.448.049-3.657a1.96 1.96 0 0 1-.036-.959c.137-.436.566-.702.963-.93l6.042-3.465c.361-.181.688-.422.967-.713.633-.742.539-1.863.215-2.783s-.844-1.785-.968-2.752c-.374-2.893 2.727-4.969 3.773-7.692.411-1.068.495-2.23.574-3.372.086-1.226.092-2.651-.851-3.441-.904-.757-2.316-.588-3.262-1.293-.867-.646-1.166-1.901-2.114-2.423-.86-.474-1.939-.172-2.895-.395-1.685-.393-2.745-2.332-4.466-2.511-.971-.101-2.069.373-2.865-.192-.701-.498-.729-1.497-.863-2.346a6.535 6.535 0 0 0-1.813-3.482 6.57 6.57 0 0 0-3.481-1.823c-1.001-.16-2.091-.099-2.942-.648-.863-.557-1.258-1.598-1.935-2.368-1.092-1.242-2.811-1.683-4.421-2.061l-6.551-1.538c-1.163-.273-2.662-.417-3.286.6a4.675 4.675 0 0 0-.389 1.221 3.78 3.78 0 0 1-1.344 1.916 3.79 3.79 0 0 1-2.216.76 4.21 4.21 0 0 0-2.483-1.919c-.664-.185-1.375-.205-2.009-.477a2.82 2.82 0 0 1-.902-.696 2.826 2.826 0 0 1-.553-.995 2.82 2.82 0 0 1 .23-2.218 3.497 3.497 0 0 0 .415-2.211 3.51 3.51 0 0 0-1.015-2.008c-1.114-.999-2.726-1.24-4.219-1.14-.391-.853.263-1.814.968-2.434s1.561-1.228 1.714-2.153c.241-1.456-1.618-2.561-3.03-2.127s-2.313 1.803-2.908 3.153c-.342.774-.632 1.59-1.171 2.243s-1.407 1.121-2.228.911c-1.162-.297-1.611-1.676-1.869-2.846-.345-1.57-.692-3.162-.62-4.768s.614-3.255 1.8-4.342c1.932-1.772 4.897-1.598 7.505-1.315-.616-.693-.464-1.861.195-2.514a2.86 2.86 0 0 1 2.594-.636 3.574 3.574 0 0 1 2.01 1.2c.741.902.952 2.121 1.512 3.145s1.82 1.898 2.851 1.348c.89-.474 1.032-1.708.81-2.691s-.692-1.94-.612-2.944c.153-1.917 2.143-3.071 3.899-3.861s3.767-1.851 4.045-3.755a3.42 3.42 0 0 1 .208-1.091 2.14 2.14 0 0 1 .786-.738c5.125-3.382 10.335-6.806 16.194-8.655.305-.096.341.011.652-.065.434-.251.146-.945-.271-1.224s-.973-.494-1.079-.984c-.078-.36.135-.714.19-1.079.136-.895-.937-1.722-1.77-1.364-.471-.622.46-1.345 1.213-1.552 2.261-.621 4.582-1 6.923-1.129a1.25 1.25 0 0 1 .788.134c.393.272.343.896.064 1.284s-.712.632-1.059.961a2.89 2.89 0 0 0-.751 2.905c1.223.621 2.551 1.26 3.905 1.041s2.555-1.738 1.919-2.951c-.592-1.13-2.372-1.384-2.678-2.622-.359-1.45 1.696-2.739 1.233-4.158-.203-.622-.823-.988-1.299-1.437a3.896 3.896 0 0 1-1.098-2.029 3.89 3.89 0 0 1 .243-2.294 4.93 4.93 0 0 1-4.32-1.35c-1.033-1.041-1.857-2.684-3.325-2.637-1.346.043-2.506 1.611-3.765 1.133-.309-.118-.636-.357-.936-.217a.78.78 0 0 0-.242.249.77.77 0 0 0-.107.33c-.32 1.527.23 3.268-.604 4.588-.907 1.436-3.005 1.636-4.105 2.931-.597.703-.828 1.651-1.377 2.392s-1.713 1.213-2.372.567a3.26 3.26 0 0 0 .251-2.14 3.264 3.264 0 0 0-1.139-1.83 8.73 8.73 0 0 0-1.962-.953 11.64 11.64 0 0 1-2.192-1.22 2.16 2.16 0 0 1-.805-.86 1.96 1.96 0 0 1 .055-1.36 5.56 5.56 0 0 1 1.704-2.449 5.57 5.57 0 0 1 2.726-1.217c.877-.119 1.897-.077 2.478-.744.307-.353.468-.887.914-1.03a1.35 1.35 0 0 1 .844.104l3.273 1.15a2.3 2.3 0 0 0 1.166.193.79.79 0 0 0 .684-.83c-.105-.543-.941-.803-.865-1.351a.905.905 0 0 1 .274-.46 11.7 11.7 0 0 1 4.23-2.867 11.74 11.74 0 0 1 5.051-.793c.413.678-.241 1.48-.784 2.058s-.981 1.612-.323 2.057a1.8 1.8 0 0 0 .871.196 7.61 7.61 0 0 1 2.32.703 44.313 44.313 0 0 1 3.327 1.613c-.096-.716-.187-1.471.084-2.14s1.045-1.195 1.719-.934c.651.251.984 1.111 1.677 1.19.924.105 1.289-1.258.903-2.103s-1.151-1.553-1.214-2.479c-.043-.625.195-1.401-.305-1.779a1.36 1.36 0 0 0-.59-.207l-12.486-2.294c-.741-.136-1.812-.032-1.845.72-.019.42.357.835.191 1.221-.178.412-.761.374-1.186.52-.659.226-.99 1.008-.926 1.701a4.73 4.73 0 0 0 .782 1.916c-.812-.339-2.042-.401-2.854-.741zM88.984 33.51a4.05 4.05 0 0 0-2.43-.035 4.047 4.047 0 0 0-2.011 1.363c-.206.27-.378.643-.206.936.247.42.875.254 1.339.104a3.37 3.37 0 0 1 2.115-.05c.435.149.825.413 1.262.557.213.089.446.118.674.085a1.27 1.27 0 0 0 .622-.274c.3-.306.319-.781.319-1.209a.97.97 0 0 0-.248-.799 1.275 1.275 0 0 0-.574-.169 1.976 1.976 0 0 1-1.156-.675m4.796-1.086a1.03 1.03 0 0 0-.904.444c-.1.145-.16.314-.176.489a1.03 1.03 0 0 0 .086.513 4.18 4.18 0 0 0 1.662.108 1.42 1.42 0 0 0 1.162-1.064 2.68 2.68 0 0 1-1.894-.361m15.168-2.22a19.164 19.164 0 0 0-4.262 1.446 3.207 3.207 0 0 1 1.554 1.269 3.2 3.2 0 0 1 .492 1.943c-.058.262-.051.535.019.794.157.379.61.521 1.009.619a6.66 6.66 0 0 0 2.213.282 2.25 2.25 0 0 0 1.831-1.118 8.1 8.1 0 0 1 .381-.899c.956-1.454 3.796.304 4.822-1.101.362-.495.329-1.24.8-1.632.244-.171.526-.279.822-.313a57.9 57.9 0 0 1 6.245-.888c.993-.086 2.288-.443 2.296-1.438a17.32 17.32 0 0 0-11.034 1.482c-1.23.615-2.857 1.909-4.042 1.094-.444-.305-.422-1.128-1.032-1.471-.625-.351-1.451-.208-2.114-.068zm12.235 2.285 1.757.337a2.28 2.28 0 0 0-.947.16 2.29 2.29 0 0 0-.796.536 2.27 2.27 0 0 0-.503.816 2.28 2.28 0 0 0-.123.951c1.645.549 3.438.015 5.17.088s3.748 1.309 3.453 3.015c-.09.516-.388 1.032-.233 1.532.109.35.418.599.593.922.364.673.073 1.524-.387 2.135s-1.077 1.099-1.481 1.749c-1.004 1.616-.433 3.706.165 5.512a4.85 4.85 0 0 0 .935 1.866c.886.941 2.329 1.022 3.622 1.041.941.014 2.019-.033 2.614-.761.777-.95.234-2.433.745-3.549.465-1.013 1.648-1.448 2.721-1.756 1.964-.565 3.966-1.045 5.823-1.898 2.306-1.059 4.461-2.71 6.996-2.846.711-.038 1.44.046 2.124-.149s1.336-.786 1.284-1.495c-.044-.606-.557-1.051-.959-1.508s-.716-1.159-.347-1.643l6.643-1.239c-.471-1.282-.837-2.97.245-3.804.39-.301.913-.421 1.245-.785.567-.62.282-1.689-.372-2.216s-1.538-.65-2.376-.719c-2.913-.242-5.843-.082-8.762.078l-17.116.937c-1.149.063-2.475-.033-3.528.358-.892.331-1.526.939-2.546 1.153-1.883.395-3.955.128-5.659 1.183zm31.462 13.863a.706.706 0 0 0-.511.116.64.64 0 0 0-.167.394 2.6 2.6 0 0 0 .378 1.861 1.83 1.83 0 0 0 .726.627 1.82 1.82 0 0 0 .944.172c.791-.101 1.374-.774 2.101-1.103 1.12-.506 5.879-1.295 2.587-3.071-1.134-.612-1.867-.072-2.761.331a6.29 6.29 0 0 1-3.297.673zm28.831-14.865a1.88 1.88 0 0 0-.915.795.8.8 0 0 0 .302 1.064 1.2 1.2 0 0 0 .448.071l1.563.047c.664.02 1.493.161 1.671.8.133.474-.164 1.084.194 1.423a1.01 1.01 0 0 0 .532.207 3.636 3.636 0 0 0 1.574.051c1.138-.305.54-.998.898-1.615.548-.944.453-.373 1.419-.914.713-.4 1.634-1.125 1.039-2.143-1.035-1.771-7.198-.546-8.725.215zm30.846-.891-.907.121c-2.047.273-4.105.548-6.076 1.162a10.12 10.12 0 0 0 2.661.652 8.143 8.143 0 0 1 1.49.212c.871.259 1.748.927 2.589.585.522-.212.692-.755 1.124-1.042.298-.198 1.429-.52 1.556-.72 1.022-1.619-1.651-1.074-2.437-.969zm3.985 4.119a17.02 17.02 0 0 0-3.349 2.449c-.426.4-.862.898-.823 1.481.051.775.878 1.225 1.594 1.527l2.901 1.227c.352-.495.03-1.179-.334-1.666s-.796-1.05-.635-1.636c.183-.669 1-.896 1.684-1.011 1.115-.188 4.123-.173 3.762-1.967-.426-2.115-3.681-1.029-4.8-.404zm-.583 119.672c-.277.799-.303 1.74.175 2.437.536.782 1.609 1.074 2.537.875a4.57 4.57 0 0 0 2.356-1.512 8.093 8.093 0 0 0 1.354-2.075c.478-1.18.815-2.411 1.005-3.67l.9-4.722c.202-1.056.194-4.292-1.749-3.238-.53.288-1.759 2.563-2.315 3.207-1.003 1.163-1.135 2.29-1.663 3.698-.661 1.764-1.989 3.234-2.6 5zm102.603 24.168a14.23 14.23 0 0 1-1.846-.877 15.53 15.53 0 0 0-.936 5.093l4.35-2.458c.654-.37 1.396-.884 1.382-1.634a.51.51 0 0 0-.24-.47.59.59 0 0 0-.305-.036c-.645.054-1.233.371-1.842.591s-1.32.337-1.878.01m24.261 1.241a9.31 9.31 0 0 0-1.395.5c-.998.507-1.677 1.47-2.576 2.138-.859.639-1.894.99-2.91 1.332-.299.263-.161.795.163 1.026a2.02 2.02 0 0 0 1.149.258c1.055.023 2.167.034 3.091-.475a9.767 9.767 0 0 0 1.456-1.154c1.081-.901 2.378-1.495 3.663-2.069.468-.176.9-.434 1.277-.762.807-.795.864-2.02-.3-2.29-.941-.219-2.723 1.206-3.618 1.496zm10.138-6.614a3.63 3.63 0 0 0-.213-1.612 3.627 3.627 0 0 0-.897-1.357c-.012 1.094-.045 2.259-.661 3.163-.439.644-1.127 1.079-1.608 1.693s-.694 1.587-.13 2.125c.36.274.799.425 1.252.431 1.123.132 2.422.205 3.209-.605.43-.442.639-1.096 1.163-1.421.195-.082.37-.207.51-.365.217-.343-.127-.796-.514-.92s-.814-.065-1.203-.183-.746-.554-.546-.908"/><path d="M333.034 133.273a5.05 5.05 0 0 1-1.8.106c-1-.184-1.777-.936-2.584-1.552a11.406 11.406 0 0 0-6.659-2.324c-2.193-.041-4.406.552-6.559.138.141.781.811 1.367 1.525 1.716s1.503.523 2.221.865a5.3 5.3 0 0 1 2.568 2.668c.231.539.376 1.125.727 1.596.715.961 2.072 1.173 3.269 1.094 1.562-.103 3.192-.551 4.644.03 1.111.444 1.907 1.415 2.834 2.17s2.235 1.316 3.3.771a5.454 5.454 0 0 1-2.749-2.002 5.44 5.44 0 0 1-1.025-3.239c1.044.096 4.054.058 3.891-1.714-.137-1.503-2.706-.485-3.603-.323zm-13.667 12.224c.185-1.016 1.2-1.913.884-2.897-.219-.68-1.008-1.016-1.723-1.032s-1.418.195-2.133.216a10.324 10.324 0 0 0-1.396.019c-1.419.233-2.294 1.719-3.631 2.247-.814.321-1.727.26-2.573.482-1.92.504-3.135 2.315-4.477 3.776a15.977 15.977 0 0 1-8.109 4.723c-1.091.252-2.265.414-3.133 1.122-1.149.937-1.431 2.544-1.687 4.004a66.103 66.103 0 0 1-3.224 11.82l4.558.581c.867.111 1.765.219 2.6-.037a7.594 7.594 0 0 0 1.711-.91 17.09 17.09 0 0 1 6.67-2.405c1.193-.163 2.445-.193 3.565.25s2.082 1.448 2.176 2.648a2.805 2.805 0 0 1 2.799.68 4.853 4.853 0 0 1 1.336 2.664c.12.622.24 1.369.819 1.63.472.213 1.014-.016 1.53-.058 1.753-.14 3.208 1.901 4.93 1.55 1.848-.377 2.301-3.14 4.104-3.694 1.035-.318 2.487.069 2.983-.893.437-.847-.435-1.826-.345-2.775.111-1.168 1.491-1.664 2.555-2.163 3.669-1.719 5.41-6.65 3.632-10.286-1.053-2.155-3.126-3.851-3.509-6.218-.294-1.822.425-3.945-.738-5.379-.591-.729-1.593-1.132-1.945-2.002-.221-.547-.132-1.169-.252-1.748s-.624-1.183-1.196-1.033c-1.661.435-2.191 5.558-3.08 6.803-1.352 1.893-4.127.646-3.701-1.685zm-30.698-10.288c-.568-.159-1.188-.316-1.731-.089s-.862 1.025-.425 1.42c3.414-.132 6.85-.264 10.235.199 3.901.533 7.761 1.855 11.679 1.466a59.74 59.74 0 0 0-6.813-1.579l-3.835-.731a29.51 29.51 0 0 0-3.115-.481c-2.188-.18-3.844.397-5.995-.205zm3.418-11.876c-.283-.024-.634-.044-.781.199-.14.233.02.54-.055.801-.103.356-.57.447-.938.399s-.767-.165-1.093.012a.93.93 0 0 0-.354.466.926.926 0 0 0-.004.584 2.7 2.7 0 0 0 .632 1.005 10.25 10.25 0 0 0 1.638 1.641c1.173.865 2.763 1.282 3.502 2.538a1.7 1.7 0 0 0 .468.629c.355.224.818.053 1.2-.121l1.339-.611a1.53 1.53 0 0 0 .626-.425c.306-.415.118-1.004-.139-1.451s-.585-.909-.53-1.421c.098-.912 1.273-1.262 1.757-2.043.487-.787.17-1.802.226-2.726.066-1.08.746-2.485-.348-3.293-.93-.686-1.818-.052-2.486.706-1.407 1.597-2.073 3.327-4.66 3.111zm8.129-16.143c.457.874 1.41 1.396 1.909 2.247.54.923.479 2.115 1.065 3.009.601.918 1.812 1.405 2.149 2.449.368 1.14-.467 2.525.199 3.52a1.474 1.474 0 0 0 1.041.576c.204.019.41-.005.604-.07a1.47 1.47 0 0 0 .525-.307 1.59 1.59 0 0 0-.065-2.218c-.395-.359-.961-.514-1.29-.934a1.94 1.94 0 0 1-.334-.812 5.31 5.31 0 0 1 .083-2.549c.088-.21.111-.443.065-.666-.149-.431-.732-.461-1.142-.661-.93-.453-.907-1.764-.744-2.784-.109.679-2.532-.477-2.786-.861-.504-.765-.23-2.24-.33-3.085-1.088.524-1.508 2.077-.949 3.146zm-24.418 13.45c-.448-.5-1.122-1.023-1.721-.722-.458.231-.584.863-.404 1.342.218.466.554.866.975 1.162 1.25 1.029 2.596 1.958 3.687 3.155 1.951 2.141 2.985 5.031 5.107 7.004a2.87 2.87 0 0 0 1.608.869c.618.057 1.313-.338 1.384-.954.058-.507-.296-.961-.642-1.337l-2.505-2.656a2.225 2.225 0 0 1-.641-1.335c-.004-.504.456-1.031.945-.907-.594-.151-1.035-1.14-1.908-1.326-.729-.156-.905.295-1.773-.077-1.655-.708-2.953-2.922-4.112-4.218zm38.888-48.697a13.75 13.75 0 0 1-1.399-.499c-1.228-.368-2.854.534-2.69 1.804.108.844.895 1.414 1.33 2.146.644 1.086.472 2.464.134 3.68a2.87 2.87 0 0 1-.465 1.047 3.56 3.56 0 0 1-1.101.791 14.723 14.723 0 0 0-4.31 3.656 1.05 1.05 0 0 0-.26.49c-.059.429.373.742.617 1.099.543.795.151 1.865.204 2.825a.8.8 0 0 0 .337.701c.327.166.715-.116.892-.436.588-1.064.145-2.772 1.248-3.284.209-.097.462-.138.601-.321.221-.29.008-.72.119-1.067.169-.521.882-.544 1.43-.521a8.147 8.147 0 0 0 2.787-.37 1.86 1.86 0 0 0 .923-.534c.329-.411.3-.995.234-1.518a20.55 20.55 0 0 0-2.434-7.417c.969.124 2.023.231 2.859-.274.469-.282 1.03-1.127.798-1.702-.367-.909-1.031-.144-1.854-.296zM190.465 86.269c.116.621.23 1.275.027 1.873s-.845 1.098-1.451.915c-.47-.142-.741-.614-1.075-.974-1.855-2-6.041-.842-7.188-3.317-.467-1.01-.149-2.22-.469-3.286a2.92 2.92 0 0 0-1.138-1.512 2.936 2.936 0 0 0-1.828-.5 6.1 6.1 0 0 0-1.707.509 43.08 43.08 0 0 1-11.309 2.825 9.31 9.31 0 0 0-2.173.395c-1.593.577-2.682 2.052-3.457 3.557s-1.347 3.135-2.385 4.472c-1.092 1.406-2.622 2.39-4.049 3.454a4.13 4.13 0 0 0-1.335 1.398c-.31.634-.292 1.372-.268 2.077l.291 8.564c.038 1.101.085 2.242.579 3.228.616 1.231 1.834 2.037 2.679 3.124a6.115 6.115 0 0 1 1.271 3.908c-.018.567-.074 1.238.368 1.594a1.63 1.63 0 0 0 .904.26l11.6.948c2.041.166 4.302.441 5.634 1.993.629.733 1.134 1.786 2.097 1.865.413.034.815-.136 1.228-.168 1.043-.083 1.958.707 2.536 1.578a6.99 6.99 0 0 1 1.126 4.492c-.095.992-.403 1.957-.469 2.952-.253 3.786 2.961 7.076 3.023 10.87.037 2.231-1.024 4.316-2.058 6.295 1.669 2.525.302 5.888.967 8.84.63 2.801 2.969 4.994 3.551 7.805.267 1.287.283 2.871 1.419 3.534a3.25 3.25 0 0 0 1.605.321c3.34.039 6.643-.712 9.637-2.191 1.405-.697 2.861-1.736 3.106-3.283.198-1.248-.435-2.644.21-3.731.76-1.281 2.706-1.179 3.825-2.164 1.814-1.598.399-4.645 1.134-6.946.661-2.069 2.935-3.167 4.062-5.024.444-.798.762-1.66.944-2.555a36.4 36.4 0 0 0 .961-6.516 38.91 38.91 0 0 1 .295-3.992c1.216-7.541 8.681-12.59 11.105-19.834.231-.692.34-1.614-.277-2.005a1.765 1.765 0 0 0-1.173-.123l-5.348.673c-.664.084-1.368.162-1.978-.113s-1.047-1.046-.723-1.632c.908-1.643-.96-3.719-1.79-5.402a79.73 79.73 0 0 0-7.95-12.875 1.305 1.305 0 0 1-.348-.756l1.517.05c-.512-1.836-1.358-3.845-3.143-4.516-1.007-.378-2.121-.248-3.195-.189-3.076.168-6.373-.296-9.417-.766zm9.419-41.369c.805.853 1.707 1.758 2.871 1.907 2.057.263 3.536-1.861 4.477-3.706a1.81 1.81 0 0 0 1.892 1.675 3.74 3.74 0 0 0 1.424-.556 28.066 28.066 0 0 1 13.282-3.429 1.434 1.434 0 0 1 .245-.997 1.44 1.44 0 0 1 .851-.577c.944-.187 1.794.628 2.25 1.475s.739 1.828 1.463 2.462 2.124.606 2.41-.312c.275-.881-.645-1.633-1.408-2.152s-1.569-1.481-1.055-2.248c3.902-.862 7.828-1.728 11.82-1.9a4.96 4.96 0 0 0 1.99-.342c.608-.298 1.092-.976.929-1.633a4.51 4.51 0 0 1-4.702-1.771c5.54-.456 11.432-.846 16.341 1.758.589 1.263-2.413 2.314-1.61 3.453.256.363.77.406 1.214.414 3.412.063 6.843.125 10.217-.389 1.232-.188 2.477-.453 3.715-.301 2.061.254 3.824 1.627 5.852 2.075.826.182 1.751.188 2.447-.291s.995-1.571.425-2.194c1.909-1.869 5.078-1.406 7.597-.511s4.906 2.338 7.572 2.537c1.912.143 3.85-.371 5.739-.044 1.187.205 2.292.732 3.452 1.056 2.195.613 4.516.483 6.795.513a47.666 47.666 0 0 1 16.965 3.366 5.05 5.05 0 0 1 1.886 1.113c.502.538.759 1.373.421 2.026l-5.582-.815c.526 1.034 1.887 1.21 2.992 1.567s2.25 1.575 1.586 2.526c-1.197-.381-2.282.815-2.887 1.915s-1.341 2.417-2.596 2.484c-1.124.06-2.482-.895-3.215-.042a21.9 21.9 0 0 1 2.583 4.124c.724 1.505 1.239 3.402.261 4.756a1.235 1.235 0 0 1-.66.511c-.798.202-1.317-.774-1.89-1.365-.722-.745-1.813-.956-2.79-1.306s-2.007-1.037-2.084-2.071c-.047-.643.293-1.241.543-1.836a7.065 7.065 0 0 0 .538-3.172c-.054-.873-.299-1.78-.927-2.39s-1.711-.803-2.385-.245c-.314.261-.566.677-.974.693-.721.028-1.275-1.228-1.855-.8a1.97 1.97 0 0 1-.268 1.317c-1.732 1.504-4.392.868-6.625 1.399a12.445 12.445 0 0 0-3.022 1.318 1.95 1.95 0 0 0-.864.724c-.278.541.029 1.233.52 1.593a4.13 4.13 0 0 0 1.714.584c2.721.515 5.483 1.312 7.631 3.057s3.558 4.632 2.878 7.313l-5.367-5.121a78.9 78.9 0 0 1 .347 6.469c.035.422-.023.847-.17 1.244-.383.844-1.42 1.128-2.328 1.314a1.83 1.83 0 0 0-.704.296 1.835 1.835 0 0 0-.521.557 1.82 1.82 0 0 0-.246.721 1.84 1.84 0 0 0 .07.759c.323 1.051 1.128 1.87 1.865 2.687s1.463 1.744 1.56 2.839-.731 2.329-1.829 2.253c-.833-.058-1.451-.802-1.806-1.556s-.566-1.594-1.1-2.235c-1.614-1.939-5.241-1.108-6.688-3.176a3.26 3.26 0 0 0-.743 1.467 3.265 3.265 0 0 0 .066 1.642c.673-.421 1.595-.03 2.1.582s.744 1.395 1.142 2.082c.535.927 1.388 1.748 1.463 2.815a9.23 9.23 0 0 0 .02 1.211c.133.647.681 1.111 1.06 1.652.883 1.258.84 2.986.27 4.413s-1.591 2.62-2.604 3.776c-1.769 2.019-3.574 4.027-5.672 5.704-.598.478-1.237.949-1.61 1.618s-.391 1.608.181 2.117c-.409.02-1.144.222-1.554.242a36 36 0 0 1-.094-4.937c-1.617-.776-3.359 1.301-3.15 3.08s1.498 3.208 2.415 4.747c.671 1.126 1.17 2.439.946 3.73s-1.378 2.482-2.685 2.368c-2.079-.181-2.949-3.162-5.007-3.503a.843.843 0 0 0-.542.054c-.306.167-.359.576-.376.923-.084 1.707-.157 3.481.51 5.054.976 2.302 3.497 4.235 2.968 6.678-2.849-1.322-4.33-4.513-5.003-7.577s-.784-6.282-1.99-9.179c-.915 1.172-2.839.203-3.676-1.026-.792-1.165-1.281-2.513-2.05-3.694s-1.948-2.239-3.357-2.304c-1.478-.068-2.759.945-3.886 1.901-.927.787-1.878 1.605-2.42 2.692-.788 1.583-.582 3.449-.62 5.216-.041 1.91-.447 3.926-1.751 5.325s-3.71 1.885-5.148.625c-.751-.658-1.115-1.641-1.439-2.585a126.67 126.67 0 0 1-3.893-13.881c-.242 1.072-1.184 2.454-2.085 1.822a1.846 1.846 0 0 1-.48-.618c-1.68-2.843-4.791-4.548-7.934-5.571s-6.45-1.5-9.558-2.623a24.23 24.23 0 0 1-4.959-2.466 3.89 3.89 0 0 0-.238 3.984c.69 1.219 2.25 1.925 3.585 1.498.691-.22 1.273-.699 1.958-.935s1.604-.12 1.904.539c.286.631-.147 1.394.068 2.052.327 1.003 1.842 1.08 2.372 1.993.394.679.069 1.581-.493 2.129s-1.314.848-2.001 1.23c-2.228 1.237-3.813 3.35-5.761 4.993s-4.695 2.844-7.016 1.79c.553-2.798-2.784-4.852-3.398-7.637-.202-.917-.098-1.891-.386-2.784-.418-1.293-1.567-2.183-2.51-3.163a12.41 12.41 0 0 1-2.619-4.171 12.38 12.38 0 0 1-.79-4.86c.051-1.151.263-2.321 0-3.443s-1.193-2.208-2.346-2.157c-2.632.116-5.949.312-7.33-1.93-.493-.8-.708-1.971.005-2.584.503-.432 1.245-.392 1.906-.327l5.931.583c1.388.136 2.887.249 4.078-.476s1.706-2.647.604-3.499c-.806-.623-2.249-.589-2.483-1.579-.195-.825.719-1.76.225-2.449-.353-.494-1.149-.357-1.631.013s-.832.912-1.372 1.192c-.946.492-2.077.024-3.096-.294s-2.383-.345-2.877.599c-.552 1.056.49 2.441-.058 3.499-.725 1.399-3.18.603-4.198 1.806-1.168 1.381.795 3.441.401 5.206a3.25 3.25 0 0 1-3.197-.179 3.1 3.1 0 0 1-1.07-1.259 3.105 3.105 0 0 1-.272-1.629c.098-.794.512-1.604.235-2.354-.225-.607-.835-.968-1.401-1.28l-5.765-3.181c-.535.991.142 2.221.988 2.965s1.906 1.306 2.462 2.286a3 3 0 0 1-1.131 3.955.69.69 0 0 1-.571.099.808.808 0 0 1-.236-.211.82.82 0 0 1-.135-.286c-1.017-2.599-2.544-5.162-4.985-6.52s-5.949-1.079-7.55 1.209c-.38.543-.636 1.162-.967 1.737-1.76 3.052-5.533 4.497-9.058 4.402a1.8 1.8 0 0 1-.988-.232c-.569-.393-.544-1.227-.457-1.913l.37-2.911c.075-.584.182-1.231.646-1.596.653-.514 1.595-.19 2.426-.202a3.085 3.085 0 0 0 1.736-.636 3.07 3.07 0 0 0 1.056-1.515 3.457 3.457 0 0 0-.003-1.855 3.46 3.46 0 0 0-.962-1.587c-.381-.358-.893-.807-.692-1.289a1.07 1.07 0 0 1 .748-.503c1.494-.433 3.073-.547 4.542-1.058s2.893-1.557 3.241-3.071c.106-.464.155-1.026.572-1.256.21-.088.435-.134.662-.135a3.22 3.22 0 0 0 2.032-1.14c.512-.62.772-1.409.729-2.211.704-.491 1.691-.13 2.372.392s1.282 1.213 2.111 1.438c1.544.42 3.036-.946 4.637-.952.673-.003 1.37.235 2.003.007.642-.231 1.025-.869 1.518-1.341s1.357-.759 1.812-.251l-.388-2.866c.78.197 1.594.225 2.385.082a5.65 5.65 0 0 0 2.206-.911l-5.007-1.689a1.09 1.09 0 0 1-.468-.25c-.364-.391-.002-1.001.294-1.446.708-1.064.827-2.818-.338-3.348-.794-.362-1.707.073-2.47.497l-3.654 2.035c-.116.694.734 1.087 1.26 1.554.318.283.544.655.647 1.068a2.11 2.11 0 0 1-.072 1.246 2.105 2.105 0 0 1-.763.988 2.11 2.11 0 0 1-1.189.384 2.63 2.63 0 0 1 .47 2.228l-2.459.177a1.07 1.07 0 0 1-.797-.155c-.263-.233-.228-.642-.289-.988-.147-.835-.965-1.42-1.801-1.57s-1.69.042-2.517.232a1.507 1.507 0 0 1-1.082-.025 1.08 1.08 0 0 1-.428-.54c-.363-.878-.024-1.91.559-2.661s1.38-1.3 2.096-1.925a12.2 12.2 0 0 0 3.632-5.627c1.354-.566 2.755-1.336 4.108-1.902a12.58 12.58 0 0 1 6.757-1.307l4.584.087c1.357.026 2.751.059 4.006.576s2.357 1.634 2.444 2.987a.91.91 0 0 1-.039.457.907.907 0 0 1-.255.381 1.083 1.083 0 0 1-.58.13c-1.265.044-1.805.359-3.071.404zM163.35 59.246c.179-.169.308-.385.373-.622a1.34 1.34 0 0 0-.007-.725 2.51 2.51 0 0 0-2.598.49 4.396 4.396 0 0 0-.696.919c-.602.981-1.135 2.154-.786 3.25a.93.93 0 0 0 .154.332.92.92 0 0 0 .269.246 1.12 1.12 0 0 0 .494.077 16.56 16.56 0 0 0 1.985-.122c.404-.049.874-.163 1.03-.539.206-.494-.292-1.053-.147-1.568.096-.23.24-.437.424-.606a.796.796 0 0 0 .204-.307.8.8 0 0 0 .046-.366c-.059-.242-.429-.379-.563-.169m3.259-4.745a5.56 5.56 0 0 0-1.799-.113.783.783 0 0 0-.383.087.634.634 0 0 0-.236.341c-.127.407-.096.848.087 1.233a1.7 1.7 0 0 0 .902.847 2.14 2.14 0 0 1 .614.246c.508.394.184 1.2.28 1.836.108.714.8 1.313.674 2.024-.1.56-.699 1.003-.603 1.564.101.587.847.764 1.442.811a1.82 1.82 0 0 0 1.022-.117 1.58 1.58 0 0 0 .644-.932 5.95 5.95 0 0 0 .301-2.25 2.115 2.115 0 0 0-.254-.993 5.53 5.53 0 0 0-.593-.679c-1.14-1.324.06-3.298-2.098-3.906z"/></g><g stroke="#36D7B7" stroke-miterlimit="10"><path opacity=".8" d="M316.636 158.483s-87.276-50.029-124.85-40.55c0 0-79.629 8.558-88.858 27.385 0 0-25.312-78.994-34.541-81.627"/><path opacity=".8" d="M102.928 145.318c14.634-38.97 146.471-82.154 146.471-82.154-18.721 4.74-57.613 54.769-57.613 54.769S105.5 66 68.387 63.691c0 0 181.144 5.924 248.249 94.792"/></g><path d="M67.564 65.873a3 3 0 1 0 0-6 3 3 0 1 0 0 6zM103 147a3 3 0 1 0 0-6 3 3 0 1 0 0 6zm146-80a3 3 0 1 0 0-6 3 3 0 1 0 0 6zm66.812 93.665a3 3 0 1 0 0-6 3 3 0 1 0 0 6zm-124.849-40.55a3 3 0 1 0 0-6 3 3 0 1 0 0 6z" fill="#36D7B7"/></svg>