<svg xmlns="http://www.w3.org/2000/svg" xmlns:xlink="http://www.w3.org/1999/xlink" width="1177" height="652" fill="none"><g fill="#cad5e2"><path d="M309.732 138.217a34.386 34.386 0 0 0-2.248-8.604 3.883 3.883 0 0 0-.733-1.428 3.89 3.89 0 0 0-1.247-1.011 4.08 4.08 0 0 0-1.964-.022l-10.088 1.544a3.86 3.86 0 0 0-2.301.894c-1.314 1.382-.02 3.606-.061 5.513-.045 2.143-1.949 3.883-4.015 4.459a15.175 15.175 0 0 1-6.379-.079l-14.105-2.192a23.26 23.26 0 0 0 10.67-7.121c1.856-2.199 2.844-6.304.161-7.346a6.59 6.59 0 0 0-2.449-.196c-6.391.049-11.42-5.286-17.403-7.534a19.246 19.246 0 0 0-21.654 6.456l7.514.362a3.33 3.33 0 0 1 2.001.534c1.647 1.353-.4 3.952-.168 6.07.301 2.753 3.956 3.34 6.711 3.619s6.25 2.516 4.924 4.948c-13.846 4.769-27.937-9.324-42.479-7.589-3.68.439-7.155 1.885-10.749 2.794-21.951 5.554-44.644-9.264-67.068-6.126a85.197 85.197 0 0 0-14.64 3.861c-3.052 1.002-6.235 2.085-8.453 4.409s-3.061 6.299-.961 8.729a49.1 49.1 0 0 1-17.215-1.637 9.65 9.65 0 0 1 3.645 3.571 9.63 9.63 0 0 1 1.313 4.93 102.17 102.17 0 0 0-26.167 7.978 44.05 44.05 0 0 0 5.416 7.215l-11.445 7.353c3.867.974 5.866 6.247 3.617 9.54 4.009-1.783 6.494-6.398 10.782-7.333 2.809-.613 5.667.536 8.331 1.615s5.593 2.126 8.352 1.316 4.793-4.386 3.04-6.665a142.706 142.706 0 0 1 36.253-5.664 4.54 4.54 0 0 1 2.745.521c1.599 1.109 1.178 3.504 1.092 5.447s1.429 4.497 3.165 3.621c-2.043 1.772-.296 5.108 1.664 6.971s4.324 4.435 3.123 6.858c-.313.633-.844 1.139-1.146 1.777-.889 1.885.523 4.081 2.189 5.332s3.707 2.126 4.865 3.859.631 4.765-1.438 5.007l-5.882-7.468a15.31 15.31 0 0 0-3.974 7.53c6.238 5.099 7.176 15.478 1.954 21.613-2.669 3.135-6.464 5.041-9.776 7.486s-6.377 5.928-6.369 10.045c.014 7.113-.567 13.721 2.098 20.316 4.916 12.16 10.59 24 16.991 35.448 1.681 3.006 3.853 6.301 7.258 6.818a418.79 418.79 0 0 1-11.621-31.917c2.243.009 4.836.187 6.151 2.004 1.089 1.505.855 3.552 1.193 5.378a16.64 16.64 0 0 0 2.125 4.995l20.549 36.604c1.704 3.035 3.658 6.292 6.913 7.521 2.082.786 4.49.638 6.406 1.769 1.502.886 2.513 2.46 4.044 3.295 4.329 2.362 10.349-2.167 14.394.652 1.157.807 1.893 2.087 2.959 3.01 3.736 3.236 9.865 1.071 14.178 3.485 2.78 1.556 4.221 4.667 5.703 7.486 3.714 7.062 9.724 13.981 17.683 14.543 2.5.177 5.054-.297 7.498.259s4.85 2.689 4.457 5.164c-.672 4.244 1.425 8.892.861 13.151-1.025 7.76-12.032 11.17-12.977 18.94-.207 1.701.117 3.457-.288 5.122-.497 2.041-2.029 3.702-2.574 5.731-1.032 3.844 1.722 7.67 4.748 10.256s6.634 4.816 8.289 8.437c1.748 3.826.889 8.288 1.458 12.457 1.241 9.1 9.101 15.847 17.191 20.197 2.464 1.325 5.11 2.608 6.706 4.907 2.082 3.001 1.874 6.957 2.57 10.543 1.702 8.781 9.095 16.017 9.305 24.96.149 6.356-3.384 12.122-5.495 18.119a42.25 42.25 0 0 0-2.099 17.9 42.24 42.24 0 0 0 5.55 17.146c1.579 2.666 3.467 5.18 4.584 8.07 1.993 5.157 1.346 11.02 3.184 16.235 2.43 6.895 9.106 12.589 8.467 19.872 3.031 6.294 9.723 9.386 16.453 11.26l12.062 3.357c2.309.643 4.723 1.291 7.074.826s4.596-2.419 4.536-4.815c-5.915-1.334-12.02-2.753-16.895-6.357s-8.216-10.023-6.366-15.797c.857-2.677 2.682-5.769.947-7.982-.993-1.266-2.81-1.597-3.93-2.753-1.748-1.803-1.147-4.831.109-7.005s3.073-4.116 3.579-6.576a6.864 6.864 0 0 0-.489-4.072 6.85 6.85 0 0 0-2.726-3.065 17.076 17.076 0 0 0 5.97-3.831c1.57-1.793 2.295-4.557 1.06-6.595 3.667.465 7.997.693 10.405-2.113 1.922-2.24 1.79-5.589 1.031-8.442s-2.044-5.624-2.084-8.576c8.46.401 16.939.114 25.353-.859a16.444 16.444 0 0 0-7.708-9.654c3.81-.645 7.282-5.207 8.486-8.879s.897-7.673.153-11.465a6.15 6.15 0 0 1-.114-3.004c.429-1.367 1.772-2.202 3.015-2.916l18.914-10.862a11.03 11.03 0 0 0 3.025-2.233c1.982-2.328 1.688-5.842.673-8.725s-2.64-5.596-3.031-8.628c-1.169-9.067 8.538-15.573 11.814-24.109 1.285-3.349 1.547-6.991 1.796-10.57.267-3.844.287-8.309-2.664-10.787-2.83-2.374-7.251-1.845-10.212-4.054-2.714-2.025-3.651-5.958-6.616-7.594-2.693-1.485-6.07-.54-9.065-1.239-5.274-1.23-8.592-7.308-13.978-7.871-3.039-.317-6.478 1.168-8.969-.602-2.194-1.559-2.282-4.693-2.7-7.353a20.533 20.533 0 0 0-5.677-10.916 20.53 20.53 0 0 0-10.898-5.712c-3.133-.503-6.543-.312-9.209-2.034-2.699-1.743-3.936-5.007-6.056-7.422-3.417-3.891-8.799-5.274-13.84-6.459l-20.506-4.821c-3.64-.855-8.332-1.309-10.285 1.88a14.74 14.74 0 0 0-1.217 3.826 11.86 11.86 0 0 1-4.207 6.008 11.85 11.85 0 0 1-6.937 2.38 13.183 13.183 0 0 0-7.772-6.013c-2.079-.579-4.305-.644-6.288-1.496a8.82 8.82 0 0 1-2.824-2.181c-.784-.911-1.373-1.973-1.731-3.12s-.48-2.355-.356-3.551a8.85 8.85 0 0 1 1.079-3.401 11 11 0 0 0 1.299-6.931 10.993 10.993 0 0 0-3.178-6.294c-3.487-3.131-8.532-3.887-13.208-3.574-1.224-2.672.823-5.687 3.03-7.629s4.886-3.851 5.367-6.751c.755-4.561-5.065-8.026-9.484-6.666s-7.239 5.653-9.104 9.884c-1.07 2.428-1.979 4.984-3.667 7.031s-4.404 3.513-6.975 2.856c-3.638-.93-5.044-5.253-5.849-8.922-1.081-4.922-2.167-9.912-1.941-14.945s1.923-10.203 5.635-13.611c6.049-5.553 15.328-5.009 23.492-4.123-1.929-2.173-1.452-5.835.611-7.88a8.957 8.957 0 0 1 3.814-2.003 8.95 8.95 0 0 1 4.307.008 11.19 11.19 0 0 1 6.291 3.761c2.32 2.828 2.98 6.647 4.733 9.858s5.696 5.948 8.923 4.226c2.788-1.488 3.23-5.353 2.537-8.435s-2.168-6.08-1.916-9.23c.479-6.009 6.709-9.627 12.206-12.102s11.792-5.803 12.663-11.769a10.74 10.74 0 0 1 .652-3.42 6.71 6.71 0 0 1 2.462-2.315c16.044-10.603 32.354-21.335 50.692-27.128.954-.302 1.066.033 2.038-.203 1.361-.787.459-2.962-.845-3.839s-3.049-1.548-3.38-3.084c-.243-1.13.422-2.239.595-3.381.425-2.807-2.933-5.399-5.541-4.277-1.473-1.95 1.442-4.217 3.799-4.866a103.15 103.15 0 0 1 21.67-3.54 3.91 3.91 0 0 1 2.466.419c1.231.853 1.074 2.809.201 4.026s-2.229 1.981-3.316 3.011a9.05 9.05 0 0 0-2.449 4.224 9.053 9.053 0 0 0 .101 4.881c3.826 1.946 7.985 3.949 12.223 3.264s7.998-5.447 6.006-9.249c-1.854-3.541-7.426-4.34-8.384-8.221-1.122-4.544 5.31-8.585 3.862-13.035-.635-1.95-2.578-3.097-4.069-4.504a12.223 12.223 0 0 1-2.674-13.552 15.424 15.424 0 0 1-7.276-.47 15.43 15.43 0 0 1-6.247-3.761c-3.234-3.265-5.815-8.414-10.408-8.268-4.214.134-7.845 5.051-11.786 3.551-.97-.369-1.992-1.12-2.931-.68-.308.2-.567.467-.756.782a2.43 2.43 0 0 0-.338 1.033c-1.001 4.788.722 10.244-1.888 14.382-2.84 4.503-9.409 5.127-12.852 9.187-1.869 2.204-2.593 5.174-4.311 7.498s-5.364 3.801-7.425 1.776a10.235 10.235 0 0 0 .785-6.708 10.24 10.24 0 0 0-3.565-5.737 27.31 27.31 0 0 0-6.142-2.987 36.44 36.44 0 0 1-6.86-3.824 6.745 6.745 0 0 1-2.519-2.695 6.135 6.135 0 0 1 .172-4.261 17.43 17.43 0 0 1 5.334-7.678 17.424 17.424 0 0 1 8.533-3.816c2.745-.374 5.94-.242 7.756-2.333.962-1.107 1.466-2.78 2.861-3.23a4.22 4.22 0 0 1 2.641.326l10.245 3.606a7.187 7.187 0 0 0 3.65.603 2.47 2.47 0 0 0 1.581-.88 2.48 2.48 0 0 0 .559-1.72c-.328-1.701-2.946-2.518-2.707-4.234a2.82 2.82 0 0 1 .857-1.441 36.62 36.62 0 0 1 29.051-11.473c1.294 2.124-.752 4.639-2.453 6.452s-3.069 5.053-1.012 6.448a5.643 5.643 0 0 0 2.728.615 23.81 23.81 0 0 1 7.261 2.202 139.423 139.423 0 0 1 10.417 5.057c-.3-2.245-.587-4.609.263-6.708s3.269-3.745 5.382-2.928c2.035.788 3.079 3.483 5.248 3.73 2.892.329 4.034-3.944 2.825-6.593s-3.6-4.867-3.8-7.772c-.134-1.959.611-4.39-.954-5.576a4.267 4.267 0 0 0-1.847-.648l-39.084-7.192c-2.321-.427-5.674-.1-5.777 2.258-.057 1.316 1.118 2.618.598 3.828-.556 1.291-2.382 1.173-3.711 1.63-2.063.709-3.099 3.158-2.9 5.331a14.81 14.81 0 0 0 2.448 6.007c-2.543-1.063-6.392-1.258-8.934-2.322zm-31.185-33.177a12.65 12.65 0 0 0-7.607-.109 12.663 12.663 0 0 0-6.296 4.273c-.643.847-1.184 2.015-.645 2.932.773 1.316 2.741.796 4.192.326a10.543 10.543 0 0 1 6.62-.158c1.363.468 2.582 1.294 3.95 1.745a3.99 3.99 0 0 0 4.056-.593c.939-.958.998-2.447 1-3.789a3.05 3.05 0 0 0-.105-1.339 3.055 3.055 0 0 0-.672-1.165 3.983 3.983 0 0 0-1.795-.531 6.186 6.186 0 0 1-3.62-2.115m15.015-3.401a3.218 3.218 0 0 0-1.597.327 3.23 3.23 0 0 0-1.233 1.066 3.21 3.21 0 0 0-.552 1.534 3.23 3.23 0 0 0 .27 1.608 13.05 13.05 0 0 0 5.203.339 4.443 4.443 0 0 0 2.323-1.117 4.46 4.46 0 0 0 1.314-2.217 8.376 8.376 0 0 1-5.928-1.132m47.483-6.961a59.85 59.85 0 0 0-13.342 4.532 10.03 10.03 0 0 1 4.862 3.977 10.02 10.02 0 0 1 1.54 6.091 5.24 5.24 0 0 0 .061 2.489c.49 1.188 1.91 1.634 3.158 1.939 2.243.682 4.585.981 6.927.884a7.05 7.05 0 0 0 3.311-1.026 7.047 7.047 0 0 0 2.423-2.478 24.99 24.99 0 0 1 1.192-2.818c2.993-4.557 11.882.953 15.094-3.452 1.132-1.551 1.028-3.887 2.504-5.116a5.62 5.62 0 0 1 2.573-.982 180.62 180.62 0 0 1 19.549-2.784c3.109-.271 7.161-1.387 7.187-4.508a54.15 54.15 0 0 0-34.541 4.647c-3.85 1.928-8.943 5.986-12.652 3.428-1.389-.957-1.32-3.535-3.231-4.612-1.954-1.101-4.541-.653-6.615-.212zm38.299 7.162 5.497 1.057a7.11 7.11 0 0 0-2.962.503 7.123 7.123 0 0 0-4.068 4.236 7.12 7.12 0 0 0-.383 2.981c5.148 1.719 10.761.046 16.184.274s11.732 4.103 10.807 9.451c-.28 1.617-1.215 3.233-.729 4.801.341 1.099 1.31 1.878 1.857 2.89 1.139 2.109.229 4.776-1.211 6.693s-3.373 3.446-4.636 5.483c-3.142 5.067-1.357 11.617.514 17.277a15.23 15.23 0 0 0 2.929 5.849c2.773 2.948 7.292 3.205 11.339 3.264 2.945.043 6.319-.103 8.182-2.385 2.432-2.979.731-7.628 2.332-11.125 1.454-3.175 5.159-4.538 8.515-5.504 6.15-1.77 12.416-3.275 18.229-5.949 7.219-3.32 13.965-8.495 21.9-8.922 2.226-.12 4.507.143 6.651-.467s4.181-2.464 4.018-4.687c-.138-1.9-1.746-3.295-3.001-4.727s-2.242-3.634-1.088-5.149l20.796-3.884c-1.474-4.018-2.622-9.309.765-11.924 1.223-.943 2.859-1.32 3.9-2.461 1.773-1.944.881-5.293-1.166-6.946s-4.816-2.037-7.438-2.255c-9.119-.757-18.29-.257-27.427.244l-53.579 2.937c-3.596.197-7.747-.104-11.044 1.123-2.792 1.038-4.777 2.945-7.969 3.614-5.894 1.236-12.381.4-17.714 3.709zm98.484 43.453a2.22 2.22 0 0 0-1.6.363c-.309.34-.492.776-.521 1.234a8.15 8.15 0 0 0 1.184 5.833 5.715 5.715 0 0 0 2.272 1.966 5.72 5.72 0 0 0 2.956.54c2.475-.316 4.3-2.427 6.575-3.458 3.508-1.587 18.403-4.06 8.099-9.627-3.551-1.919-5.845-.225-8.644 1.038a19.666 19.666 0 0 1-10.321 2.111zm90.25-46.595a5.89 5.89 0 0 0-2.862 2.491 2.51 2.51 0 0 0 .943 3.335c.449.163.925.239 1.403.223l4.892.146c2.079.062 4.675.505 5.233 2.508.415 1.487-.513 3.398.607 4.46a3.14 3.14 0 0 0 1.664.649 11.34 11.34 0 0 0 4.929.16c3.56-.955 1.689-3.128 2.81-5.062 1.716-2.96 1.419-1.168 4.441-2.865 2.232-1.252 5.117-3.525 3.254-6.718-3.24-5.552-22.533-1.713-27.314.672zm96.559-2.792-2.841.379c-6.405.855-12.848 1.718-19.017 3.641a31.63 31.63 0 0 0 8.328 2.044 25.59 25.59 0 0 1 4.666.663c2.725.812 5.471 2.906 8.104 1.833 1.632-.665 2.165-2.365 3.517-3.266.934-.622 4.475-1.628 4.871-2.256 3.201-5.075-5.168-3.366-7.628-3.038zm12.474 12.911a53.306 53.306 0 0 0-10.483 7.677c-1.335 1.255-2.698 2.815-2.577 4.643.161 2.43 2.749 3.839 4.991 4.788l9.081 3.845c1.102-1.553.093-3.696-1.045-5.222s-2.492-3.292-1.989-5.128c.574-2.095 3.129-2.809 5.272-3.17 3.49-.588 12.907-.541 11.776-6.167-1.334-6.629-11.522-3.225-15.026-1.266zm-1.826 375.127c-.865 2.503-.947 5.452.549 7.637 1.678 2.452 5.036 3.366 7.942 2.744a14.307 14.307 0 0 0 7.373-4.741 25.37 25.37 0 0 0 4.242-6.504 50.746 50.746 0 0 0 3.143-11.502l2.82-14.804c.63-3.309.605-13.452-5.476-10.147-1.661.903-5.507 8.031-7.248 10.052-3.138 3.644-3.553 7.179-5.205 11.592-2.069 5.529-6.227 10.136-8.14 15.673zm321.182 75.758a44.354 44.354 0 0 1-5.778-2.751 48.704 48.704 0 0 0-2.93 15.965l13.613-7.705c2.05-1.159 4.37-2.77 4.33-5.123a1.54 1.54 0 0 0-.18-.84 1.627 1.627 0 0 0-.57-.633c-.31-.122-.64-.16-.96-.112-2.02.168-3.858 1.162-5.763 1.852s-4.132 1.056-5.879.031m75.942 3.89c-1.49.407-2.95.931-4.36 1.567-3.13 1.59-5.25 4.609-8.07 6.703-2.69 2.004-5.93 3.104-9.11 4.174-.93.827-.5 2.492.51 3.218a6.34 6.34 0 0 0 3.6.808c3.3.073 6.78.105 9.68-1.49a30.553 30.553 0 0 0 4.55-3.616c3.39-2.823 7.45-4.686 11.47-6.485a13.23 13.23 0 0 0 4-2.39c2.52-2.49 2.7-6.331-.94-7.178-2.95-.685-8.52 3.782-11.33 4.689zm31.74-20.731a11.44 11.44 0 0 0-.67-5.053 11.29 11.29 0 0 0-2.81-4.253c-.03 3.427-.14 7.079-2.07 9.913-1.37 2.02-3.52 3.384-5.03 5.308-1.5 1.923-2.17 4.973-.41 6.661a6.637 6.637 0 0 0 3.92 1.35c3.52.414 7.58.644 10.05-1.894 1.34-1.386 2-3.438 3.64-4.457a4.437 4.437 0 0 0 1.6-1.143c.67-1.077-.4-2.496-1.61-2.884-1.22-.388-2.55-.205-3.77-.574s-2.33-1.738-1.71-2.846"/><path d="M1042.5 417.759a15.76 15.76 0 0 1-5.63.333c-3.13-.576-5.57-2.933-8.09-4.866-6-4.572-13.3-7.121-20.85-7.284-6.86-.129-13.786 1.73-20.526.433.44 2.449 2.536 4.286 4.772 5.378s4.705 1.641 6.952 2.711a16.6 16.6 0 0 1 8.042 8.363c.72 1.69 1.18 3.528 2.27 5.003 2.24 3.015 6.49 3.677 10.24 3.43 4.88-.321 9.99-1.727 14.53.094 3.48 1.393 5.97 4.437 8.88 6.804 2.9 2.367 6.99 4.123 10.32 2.416a17.104 17.104 0 0 1-8.6-6.277 17.104 17.104 0 0 1-3.21-10.153c3.27.3 12.69.184 12.18-5.373-.43-4.709-8.47-1.52-11.28-1.012zm-42.78 38.317c.58-3.185 3.76-5.997 2.77-9.079-.69-2.132-3.159-3.185-5.397-3.237s-4.437.614-6.675.677a32.367 32.367 0 0 0-4.371.062c-4.442.73-7.18 5.386-11.367 7.042-2.546 1.007-5.405.814-8.053 1.51-6.01 1.58-9.813 7.259-14.014 11.838a50.01 50.01 0 0 1-25.384 14.803c-3.417.792-7.09 1.298-9.806 3.517-3.597 2.939-4.483 7.977-5.283 12.553a207.26 207.26 0 0 1-10.093 37.05l14.271 1.823c2.713.346 5.524.685 8.139-.119a23.644 23.644 0 0 0 5.353-2.851 53.436 53.436 0 0 1 20.879-7.537c3.737-.513 7.655-.607 11.162.782s6.516 4.539 6.81 8.3a8.77 8.77 0 0 1 4.676-.148 8.774 8.774 0 0 1 4.086 2.279 15.232 15.232 0 0 1 4.183 8.351c.376 1.952.752 4.291 2.564 5.11 1.478.669 3.173-.051 4.79-.18 5.486-.439 10.039 5.958 15.43 4.856 5.79-1.181 7.21-9.843 12.85-11.578 3.24-.996 7.78.215 9.34-2.799 1.36-2.657-1.37-5.723-1.08-8.698.34-3.663 4.66-5.218 7.99-6.781 11.49-5.388 16.94-20.845 11.37-32.244-3.29-6.755-9.78-12.071-10.98-19.491-.92-5.709 1.33-12.366-2.31-16.86-1.85-2.285-4.99-3.547-6.09-6.275-.69-1.717-.41-3.665-.79-5.478-.37-1.814-1.95-3.711-3.74-3.241-5.2 1.365-6.86 17.425-9.65 21.327-4.23 5.932-12.913 2.024-11.58-5.284zm-96.095-32.249c-1.776-.498-3.716-.989-5.418-.277s-2.697 3.212-1.331 4.452c10.689-.417 21.443-.83 32.04.621 12.211 1.673 24.294 5.815 36.558 4.597a186.06 186.06 0 0 0-21.326-4.949l-12.006-2.293a92.736 92.736 0 0 0-9.749-1.507c-6.849-.566-12.033 1.245-18.768-.644zm10.701-37.226c-.888-.074-1.987-.137-2.446.625-.438.729.064 1.692-.172 2.51-.322 1.117-1.785 1.402-2.937 1.25s-2.398-.516-3.419.039a2.9 2.9 0 0 0-1.109 1.459 2.903 2.903 0 0 0-.012 1.833 8.47 8.47 0 0 0 1.977 3.15 32.187 32.187 0 0 0 5.127 5.144c3.674 2.711 8.651 4.018 10.965 7.954a5.27 5.27 0 0 0 1.464 1.971c1.111.704 2.559.169 3.755-.378l4.192-1.915a4.77 4.77 0 0 0 1.96-1.333c.957-1.299.369-3.147-.435-4.547s-1.832-2.849-1.66-4.454c.308-2.861 3.987-3.956 5.5-6.404 1.525-2.468.532-5.648.708-8.545.206-3.386 2.334-7.792-1.09-10.322-2.91-2.151-5.691-.163-7.78 2.211-4.406 5.007-6.489 10.429-14.588 9.752zm25.445-50.603c1.432 2.741 4.415 4.376 5.976 7.045 1.691 2.892 1.499 6.63 3.334 9.433 1.883 2.877 5.672 4.404 6.727 7.676 1.153 3.572-1.462 7.913.623 11.034a4.63 4.63 0 0 0 1.44 1.245 4.65 4.65 0 0 0 3.711.341 4.64 4.64 0 0 0 1.643-.962 4.984 4.984 0 0 0 1.311-3.518 4.98 4.98 0 0 0-1.517-3.435c-1.234-1.126-3.007-1.612-4.037-2.927a6.133 6.133 0 0 1-1.046-2.546 16.667 16.667 0 0 1 .262-7.989 3.554 3.554 0 0 0 .201-2.09c-.464-1.349-2.29-1.444-3.572-2.07-2.911-1.421-2.84-5.53-2.332-8.729-.338 2.13-7.926-1.493-8.72-2.699-1.579-2.397-.72-7.021-1.032-9.669-3.407 1.642-4.721 6.51-2.972 9.86zm-76.436 42.162c-1.401-1.567-3.51-3.207-5.388-2.262-1.432.721-1.826 2.703-1.265 4.206a9.263 9.263 0 0 0 3.055 3.642c3.913 3.226 8.126 6.139 11.539 9.89 6.109 6.712 9.344 15.77 15.988 21.954a8.957 8.957 0 0 0 5.034 2.724c1.935.18 4.108-1.058 4.331-2.989.183-1.591-.926-3.015-2.01-4.194-2.58-2.806-5.405-5.39-7.841-8.323a6.99 6.99 0 0 1-2.005-4.186c-.012-1.579 1.428-3.232 2.958-2.841-1.861-.476-3.241-3.576-5.972-4.159-2.283-.487-2.835.926-5.551-.239-5.181-2.222-9.245-9.161-12.873-13.223zm121.732-152.646a42.906 42.906 0 0 1-4.377-1.564c-3.847-1.154-8.936 1.673-8.424 5.656.341 2.647 2.804 4.431 4.164 6.727 2.018 3.404 1.48 7.722.42 11.535a9.01 9.01 0 0 1-1.456 3.282 11.106 11.106 0 0 1-3.446 2.479 46.093 46.093 0 0 0-13.49 11.461c-.404.43-.685.96-.815 1.535-.183 1.345 1.168 2.325 1.933 3.447 1.698 2.491.47 5.844.638 8.855a2.507 2.507 0 0 0 1.055 2.196c1.023.52 2.236-.363 2.791-1.368 1.84-3.334.454-8.687 3.907-10.295.653-.304 1.445-.432 1.88-1.006.692-.91.025-2.258.375-3.346.526-1.633 2.76-1.707 4.475-1.634a25.41 25.41 0 0 0 8.724-1.162 5.81 5.81 0 0 0 2.888-1.672c1.032-1.288.941-3.12.734-4.758a64.484 64.484 0 0 0-7.619-23.249c3.033.387 6.333.723 8.95-.858 1.466-.885 3.223-3.532 2.497-5.334-1.15-2.849-3.227-.451-5.804-.927zM596.218 270.42c.363 1.947.719 3.997.081 5.872s-2.645 3.441-4.54 2.867c-1.471-.446-2.32-1.925-3.365-3.053-5.808-6.27-18.912-2.64-22.5-10.397-1.464-3.166-.469-6.959-1.468-10.301a9.17 9.17 0 0 0-9.285-6.308 19.08 19.08 0 0 0-5.343 1.595 134.734 134.734 0 0 1-35.402 8.854 29.083 29.083 0 0 0-6.802 1.238c-4.988 1.808-8.396 6.432-10.821 11.151s-4.216 9.827-7.467 14.019c-3.418 4.406-8.207 7.492-12.674 10.829a12.93 12.93 0 0 0-4.18 4.381c-.969 1.989-.914 4.301-.839 6.511l.913 26.844c.118 3.453.265 7.029 1.81 10.119 1.93 3.858 5.742 6.385 8.387 9.794a19.175 19.175 0 0 1 3.979 12.25c-.056 1.777-.232 3.879 1.152 4.995.842.546 1.827.83 2.83.814l36.312 2.972c6.387.523 13.466 1.383 17.636 6.249 1.968 2.297 3.549 5.6 6.564 5.846 1.293.106 2.551-.425 3.845-.528 3.263-.258 6.129 2.219 7.938 4.947a21.945 21.945 0 0 1 3.525 14.08c-.297 3.112-1.262 6.137-1.47 9.256-.791 11.868 9.27 22.179 9.465 34.071.114 6.995-3.206 13.531-6.444 19.733 5.225 7.916.947 18.457 3.027 27.711 1.973 8.78 9.294 15.653 11.118 24.465.835 4.034.883 8.999 4.441 11.076a10.107 10.107 0 0 0 5.024 1.006 66.24 66.24 0 0 0 30.165-6.867c4.399-2.183 8.958-5.441 9.726-10.291.619-3.911-1.364-8.286.654-11.693 2.379-4.015 8.474-3.697 11.974-6.784 5.679-5.009 1.251-14.56 3.552-21.774 2.068-6.484 9.187-9.928 12.716-15.748a27.993 27.993 0 0 0 2.955-8.009 114.25 114.25 0 0 0 3.006-20.426 122.33 122.33 0 0 1 .925-12.512c3.804-23.637 27.173-39.466 34.76-62.174.724-2.168 1.065-5.057-.865-6.284a5.52 5.52 0 0 0-3.674-.384l-16.739 2.11c-2.079.262-4.283.507-6.192-.357s-3.278-3.279-2.265-5.113c2.843-5.15-3.005-11.657-5.603-16.935a249.96 249.96 0 0 0-24.885-40.357 4.107 4.107 0 0 1-1.091-2.368l4.751.158c-1.604-5.754-4.25-12.051-9.841-14.156-3.15-1.187-6.639-.776-10-.593-9.627.526-19.948-.927-29.476-2.401zm29.484-129.675c2.519 2.675 5.342 5.511 8.987 5.978 6.438.823 11.067-5.834 14.014-11.617a5.674 5.674 0 0 0 5.923 5.251 11.677 11.677 0 0 0 4.455-1.742 87.77 87.77 0 0 1 41.579-10.748 4.497 4.497 0 0 1 .767-3.127 4.49 4.49 0 0 1 2.662-1.809c2.956-.586 5.618 1.969 7.044 4.623s2.314 5.731 4.579 7.718 6.651 1.9 7.545-.977c.859-2.762-2.018-5.118-4.409-6.746s-4.91-4.643-3.3-7.046c12.213-2.703 24.502-5.417 37-5.954a15.494 15.494 0 0 0 6.228-1.073c1.906-.935 3.42-3.058 2.908-5.119a14.103 14.103 0 0 1-14.718-5.551c17.341-1.431 35.785-2.651 51.153 5.509 1.844 3.959-7.555 7.253-5.04 10.823.802 1.139 2.409 1.273 3.802 1.299 10.679.198 21.42.392 31.979-1.22 3.859-.589 7.756-1.421 11.63-.943 6.453.796 11.972 5.101 18.32 6.505 2.584.571 5.481.59 7.659-.912s3.115-4.925 1.33-6.879c5.977-5.858 15.897-4.406 23.782-1.601s15.356 7.327 23.702 7.952c5.984.448 12.052-1.161 17.966-.138 3.716.643 7.175 2.296 10.807 3.312 6.869 1.921 14.136 1.515 21.268 1.608a149.017 149.017 0 0 1 53.106 10.552c2.2.716 4.21 1.907 5.9 3.488 1.58 1.685 2.38 4.303 1.32 6.352l-17.47-2.553c1.65 3.24 5.9 3.793 9.36 4.911s7.05 4.937 4.97 7.919c-3.75-1.193-7.14 2.554-9.04 6.001-1.89 3.448-4.2 7.576-8.12 7.786-3.52.188-7.775-2.806-10.067-.133a68.826 68.826 0 0 1 8.087 12.927c2.26 4.718 3.88 10.663.82 14.908a3.92 3.92 0 0 1-2.07 1.602c-2.5.633-4.125-2.425-5.918-4.279-2.259-2.336-5.675-2.997-8.735-4.093s-6.282-3.25-6.521-6.491c-.149-2.016.916-3.891 1.7-5.754a22.17 22.17 0 0 0 1.684-9.944c-.171-2.735-.938-5.58-2.903-7.491s-5.356-2.518-7.465-.767c-.984.816-1.772 2.123-3.05 2.172-2.258.086-3.991-3.85-5.808-2.507a6.173 6.173 0 0 1-.839 4.128c-5.42 4.715-13.748 2.72-20.736 4.386a38.92 38.92 0 0 0-9.46 4.131 6.094 6.094 0 0 0-2.705 2.27c-.872 1.695.09 3.866 1.627 4.993a12.91 12.91 0 0 0 5.365 1.831c8.519 1.614 17.163 4.112 23.889 9.584s11.137 14.518 9.009 22.923l-16.801-16.053c.638 6.74 1 13.5 1.087 20.277a9.136 9.136 0 0 1-.533 3.901c-1.198 2.645-4.444 3.535-7.289 4.119a5.71 5.71 0 0 0-2.202.927 5.7 5.7 0 0 0-1.629 1.748 5.707 5.707 0 0 0-.551 4.64c1.01 3.294 3.53 5.863 5.838 8.422s4.578 5.468 4.88 8.9-2.288 7.302-5.725 7.063c-2.606-.181-4.54-2.513-5.651-4.877s-1.773-4.998-3.443-7.006c-5.055-6.08-16.409-3.475-20.938-9.956a10.246 10.246 0 0 0-2.325 4.597 10.24 10.24 0 0 0 .208 5.149c2.106-1.319 4.99-.094 6.573 1.822s2.33 4.374 3.573 6.526c1.677 2.904 4.347 5.479 4.581 8.825a28.78 28.78 0 0 0 .064 3.795c.415 2.027 2.129 3.483 3.317 5.177 2.764 3.943 2.628 9.359.846 13.833s-4.983 8.211-8.153 11.835c-5.538 6.33-11.189 12.623-17.754 17.88-1.873 1.5-3.873 2.975-5.039 5.072s-1.227 5.041.566 6.636c-1.283.064-3.584.695-4.866.759a113.087 113.087 0 0 1-.294-15.477c-5.062-2.431-10.513 4.079-9.86 9.657s4.688 10.054 7.56 14.88c2.1 3.529 3.661 7.644 2.96 11.69s-4.313 7.78-8.405 7.423c-6.507-.568-9.229-9.91-15.674-10.979a2.627 2.627 0 0 0-1.696.168c-.956.525-1.122 1.805-1.176 2.895-.264 5.349-.492 10.911 1.596 15.843 3.055 7.215 10.947 13.274 9.291 20.932-8.918-4.145-13.554-14.146-15.66-23.752s-2.456-19.691-6.229-28.772c-2.866 3.672-8.889.636-11.507-3.217-2.482-3.653-4.01-7.878-6.418-11.58s-6.098-7.017-10.509-7.221c-4.626-.213-8.637 2.961-12.165 5.96-2.901 2.466-5.88 5.029-7.575 8.439-2.468 4.96-1.822 10.809-1.941 16.348-.129 5.989-1.398 12.307-5.48 16.691s-11.615 5.912-16.117 1.96c-2.35-2.062-3.488-5.144-4.502-8.103a396.73 396.73 0 0 1-12.188-43.511c-.756 3.361-3.707 7.692-6.526 5.713a5.855 5.855 0 0 1-1.504-1.938c-5.258-8.912-14.996-14.257-24.835-17.463s-20.19-4.7-29.92-8.223a75.706 75.706 0 0 1-15.521-7.731 12.206 12.206 0 0 0-.746 12.487c2.158 3.821 7.042 6.032 11.223 4.697 2.16-.691 3.985-2.19 6.128-2.931s5.021-.377 5.959 1.688c.897 1.977-.459 4.368.213 6.433 1.025 3.143 5.766 3.385 7.424 6.246 1.234 2.129.219 4.955-1.542 6.673s-4.112 2.659-6.262 3.855c-6.976 3.879-11.937 10.501-18.034 15.653s-14.698 8.914-21.964 5.609c1.732-8.77-8.715-15.208-10.637-23.939-.633-2.874-.305-5.926-1.208-8.726-1.307-4.055-4.905-6.843-7.856-9.915a38.91 38.91 0 0 1-8.2-13.075 38.906 38.906 0 0 1-2.472-15.235c.159-3.608.822-7.275 0-10.792s-3.734-6.921-7.342-6.762c-8.241.364-18.623.977-22.947-6.048-1.543-2.507-2.215-6.18.017-8.101 1.573-1.355 3.897-1.227 5.964-1.024l18.568 1.827c4.343.427 9.037.78 12.764-1.491s5.342-8.297 1.891-10.968c-2.522-1.952-7.039-1.846-7.772-4.949-.61-2.584 2.25-5.517.705-7.676-1.107-1.549-3.598-1.119-5.107.042s-2.604 2.858-4.293 3.737c-2.963 1.542-6.504.075-9.691-.923s-7.462-1.082-9.008 1.879c-1.729 3.311 1.534 7.65-.182 10.968-2.269 4.387-9.953 1.889-13.139 5.663-3.657 4.33 2.488 10.786 1.255 16.317a10.16 10.16 0 0 1-10.007-.562 9.72 9.72 0 0 1-3.351-3.945 9.73 9.73 0 0 1-.85-5.105c.305-2.489 1.602-5.029.733-7.38-.703-1.901-2.612-3.033-4.386-4.014l-18.044-9.971c-1.675 3.108.443 6.961 3.092 9.295s5.966 4.092 7.706 7.164a9.4 9.4 0 0 1 .69 6.901 9.407 9.407 0 0 1-4.228 5.497 2.18 2.18 0 0 1-.86.352c-.309.054-.626.04-.929-.04a2.486 2.486 0 0 1-1.16-1.56c-3.184-8.147-7.964-16.18-15.606-20.436s-18.623-3.381-23.634 3.788c-1.191 1.703-1.989 3.644-3.026 5.445-5.509 9.565-17.32 14.095-28.354 13.799a5.637 5.637 0 0 1-3.093-.727c-1.784-1.232-1.703-3.845-1.43-5.995l1.158-9.125c.233-1.832.57-3.857 2.02-5.001 2.044-1.612 4.993-.595 7.596-.632a9.63 9.63 0 0 0 5.432-1.995 9.627 9.627 0 0 0 3.306-4.749 10.84 10.84 0 0 0-.01-5.814 10.846 10.846 0 0 0-3.01-4.975c-1.194-1.121-2.795-2.528-2.165-4.039a3.346 3.346 0 0 1 2.342-1.577c4.676-1.358 9.617-1.714 14.215-3.316s9.057-4.88 10.146-9.626c.334-1.455.486-3.216 1.792-3.938a5.4 5.4 0 0 1 2.071-.423 10.073 10.073 0 0 0 6.363-3.574 10.07 10.07 0 0 0 2.281-6.931c2.204-1.54 5.291-.408 7.423 1.23s4.014 3.802 6.608 4.508c4.834 1.315 9.506-2.965 14.516-2.985 2.107-.008 4.288.737 6.27.023 2.009-.724 3.209-2.725 4.751-4.202s4.248-2.379 5.672-.787l-1.212-8.982c2.442.616 4.988.704 7.466.256a17.65 17.65 0 0 0 6.904-2.855l-15.672-5.295a3.405 3.405 0 0 1-1.465-.783c-1.14-1.227-.008-3.139.919-4.534 2.216-3.336 2.588-8.832-1.057-10.493-2.488-1.134-5.343.227-7.731 1.558l-11.439 6.378c-.363 2.175 2.296 3.407 3.943 4.871a6.605 6.605 0 0 1 2.024 3.348 6.61 6.61 0 0 1-6.335 8.204 8.234 8.234 0 0 1 1.531 3.324 8.25 8.25 0 0 1-.06 3.66l-7.696.554a3.337 3.337 0 0 1-2.496-.488c-.823-.731-.712-2.012-.903-3.096-.46-2.617-3.022-4.451-5.638-4.921s-5.29.132-7.88.727a4.7 4.7 0 0 1-3.387-.078 3.38 3.38 0 0 1-1.34-1.691c-1.135-2.753-.074-5.989 1.749-8.343s4.32-4.075 6.562-6.034a38.244 38.244 0 0 0 11.371-17.638c4.237-1.775 8.623-4.187 12.86-5.962a39.344 39.344 0 0 1 21.151-4.098l14.348.274c4.248.081 8.611.185 12.539 1.804s7.379 5.123 7.651 9.363a2.88 2.88 0 0 1-.121 1.432c-.161.46-.436.871-.799 1.195a3.383 3.383 0 0 1-1.814.409c-3.962.139-5.651 1.126-9.613 1.266zm-114.363 44.967a4.204 4.204 0 0 0 1.166-1.95 4.21 4.21 0 0 0-.021-2.273 7.86 7.86 0 0 0-4.285-.39 7.845 7.845 0 0 0-3.847 1.926c-.85.86-1.583 1.828-2.179 2.88-1.885 3.076-3.553 6.75-2.46 10.189a2.897 2.897 0 0 0 1.324 1.811 3.47 3.47 0 0 0 1.544.242 51.634 51.634 0 0 0 6.214-.382c1.266-.155 2.736-.513 3.226-1.69.643-1.549-.914-3.301-.46-4.915a5.373 5.373 0 0 1 1.326-1.899 2.51 2.51 0 0 0 .782-2.107c-.183-.758-1.343-1.187-1.76-.529m10.2-14.876a17.39 17.39 0 0 0-5.631-.354 2.456 2.456 0 0 0-1.2.273 2 2 0 0 0-.739 1.07 5.32 5.32 0 0 0 3.097 6.519 6.667 6.667 0 0 1 1.92.772c1.593 1.235.578 3.761.879 5.754.339 2.238 2.505 4.116 2.108 6.345-.313 1.755-2.188 3.145-1.886 4.903.316 1.84 2.652 2.393 4.513 2.541a5.68 5.68 0 0 0 3.198-.367 4.95 4.95 0 0 0 2.018-2.922 18.73 18.73 0 0 0 .943-7.052 6.683 6.683 0 0 0-.795-3.112 17.324 17.324 0 0 0-1.858-2.128c-3.567-4.149.189-10.338-6.567-12.242z"/></g><g stroke="#51585a" stroke-width="3" stroke-miterlimit="10"><path opacity=".8" d="M991.171 496.784S717.969 339.962 600.352 369.675c0 0-249.265 26.825-278.153 85.84 0 0-79.237-247.615-108.125-255.868"/><path opacity=".8" d="M322.199 455.515c45.808-122.156 458.499-257.519 458.499-257.519-58.602 14.857-180.346 171.679-180.346 171.679S342.833 182.314 214.074 199.647c0 0 567.037 18.571 777.097 297.137"/></g><g fill="#51585a"><path d="M214.074 211.615a11.97 11.97 0 0 0 11.968-11.968 11.97 11.97 0 0 0-11.968-11.968 11.97 11.97 0 0 0-11.969 11.968 11.97 11.97 0 0 0 11.969 11.968z"/><use xlink:href="#a"/><use xlink:href="#a" x="458.499" y="-257.519"/><path d="M991.171 508.752a11.97 11.97 0 0 0 11.969-11.968 11.97 11.97 0 0 0-11.969-11.968 11.97 11.97 0 0 0-11.968 11.968 11.97 11.97 0 0 0 11.968 11.968z"/><use xlink:href="#a" x="278.153" y="-85.84"/></g><defs><path id="a" d="M322.199 467.483a11.97 11.97 0 0 0 11.968-11.968 11.97 11.97 0 0 0-11.968-11.968 11.97 11.97 0 0 0-11.968 11.968 11.97 11.97 0 0 0 11.968 11.968z"/></defs></svg>